<mxfile host="Electron" modified="2023-11-27T18:31:09.292Z" agent="Mozilla/5.0 (Windows NT 10.0; Win64; x64) AppleWebKit/537.36 (KHTML, like Gecko) draw.io/22.0.3 Chrome/114.0.5735.289 Electron/25.8.4 Safari/537.36" etag="3l8cdKZSYJfd6GvcN3_E" version="22.0.3" type="device">
  <diagram id="kgpKYQtTHZ0yAKxKKP6v" name="Page-1">
    <mxGraphModel dx="6907" dy="-3660" grid="1" gridSize="10" guides="1" tooltips="1" connect="1" arrows="1" fold="1" page="1" pageScale="1" pageWidth="850" pageHeight="1100" math="0" shadow="0">
      <root>
        <mxCell id="0" />
        <mxCell id="1" parent="0" />
        <mxCell id="JFI_zeQeY46TYyX4Rh8R-6" value="MemoryAnalytics" style="swimlane;fontStyle=1;align=center;verticalAlign=top;childLayout=stackLayout;horizontal=1;startSize=26;horizontalStack=0;resizeParent=1;resizeParentMax=0;resizeLast=0;collapsible=1;marginBottom=0;whiteSpace=wrap;html=1;" parent="1" vertex="1">
          <mxGeometry x="1070" y="8150" width="240" height="130" as="geometry" />
        </mxCell>
        <mxCell id="JFI_zeQeY46TYyX4Rh8R-7" value="- bancoDados: List&amp;lt;Database&amp;gt;&lt;br&gt;- empresas: List&amp;lt;Empresa&amp;gt;" style="text;strokeColor=none;fillColor=none;align=left;verticalAlign=top;spacingLeft=4;spacingRight=4;overflow=hidden;rotatable=0;points=[[0,0.5],[1,0.5]];portConstraint=eastwest;whiteSpace=wrap;html=1;" parent="JFI_zeQeY46TYyX4Rh8R-6" vertex="1">
          <mxGeometry y="26" width="240" height="44" as="geometry" />
        </mxCell>
        <mxCell id="JFI_zeQeY46TYyX4Rh8R-8" value="" style="line;strokeWidth=1;fillColor=none;align=left;verticalAlign=middle;spacingTop=-1;spacingLeft=3;spacingRight=3;rotatable=0;labelPosition=right;points=[];portConstraint=eastwest;strokeColor=inherit;" parent="JFI_zeQeY46TYyX4Rh8R-6" vertex="1">
          <mxGeometry y="70" width="240" height="30" as="geometry" />
        </mxCell>
        <mxCell id="JFI_zeQeY46TYyX4Rh8R-9" value="#cadastrarEmpresa(): void" style="text;html=1;align=center;verticalAlign=middle;resizable=0;points=[];autosize=1;strokeColor=none;fillColor=none;" parent="JFI_zeQeY46TYyX4Rh8R-6" vertex="1">
          <mxGeometry y="100" width="240" height="30" as="geometry" />
        </mxCell>
        <mxCell id="JFI_zeQeY46TYyX4Rh8R-10" value="MySQl" style="swimlane;fontStyle=0;childLayout=stackLayout;horizontal=1;startSize=26;fillColor=none;horizontalStack=0;resizeParent=1;resizeParentMax=0;resizeLast=0;collapsible=1;marginBottom=0;whiteSpace=wrap;html=1;" parent="1" vertex="1">
          <mxGeometry x="310" y="8473" width="140" height="52" as="geometry" />
        </mxCell>
        <mxCell id="JFI_zeQeY46TYyX4Rh8R-11" value="- porta: String" style="text;strokeColor=none;fillColor=none;align=left;verticalAlign=top;spacingLeft=4;spacingRight=4;overflow=hidden;rotatable=0;points=[[0,0.5],[1,0.5]];portConstraint=eastwest;whiteSpace=wrap;html=1;" parent="JFI_zeQeY46TYyX4Rh8R-10" vertex="1">
          <mxGeometry y="26" width="140" height="26" as="geometry" />
        </mxCell>
        <mxCell id="JFI_zeQeY46TYyX4Rh8R-12" value="&amp;lt;&amp;lt;abstract&amp;gt;&amp;gt; Database" style="swimlane;fontStyle=1;align=center;verticalAlign=top;childLayout=stackLayout;horizontal=1;startSize=26;horizontalStack=0;resizeParent=1;resizeParentMax=0;resizeLast=0;collapsible=1;marginBottom=0;whiteSpace=wrap;html=1;" parent="1" vertex="1">
          <mxGeometry x="340" y="8170" width="250" height="214" as="geometry" />
        </mxCell>
        <mxCell id="JFI_zeQeY46TYyX4Rh8R-13" value="&lt;div align=&quot;left&quot;&gt;- nomeBanco: String&lt;/div&gt;&lt;div align=&quot;left&quot;&gt;- senhaBanco: String&lt;/div&gt;&lt;div align=&quot;left&quot;&gt;- localhost: String&lt;br&gt;&lt;/div&gt;" style="text;html=1;align=left;verticalAlign=middle;resizable=0;points=[];autosize=1;strokeColor=none;fillColor=none;" parent="JFI_zeQeY46TYyX4Rh8R-12" vertex="1">
          <mxGeometry y="26" width="250" height="60" as="geometry" />
        </mxCell>
        <mxCell id="JFI_zeQeY46TYyX4Rh8R-14" value="" style="line;strokeWidth=1;fillColor=none;align=left;verticalAlign=middle;spacingTop=-1;spacingLeft=3;spacingRight=3;rotatable=0;labelPosition=right;points=[];portConstraint=eastwest;strokeColor=inherit;" parent="JFI_zeQeY46TYyX4Rh8R-12" vertex="1">
          <mxGeometry y="86" width="250" height="38" as="geometry" />
        </mxCell>
        <mxCell id="JFI_zeQeY46TYyX4Rh8R-15" value="&lt;div align=&quot;left&quot;&gt;&lt;blockquote style=&quot;margin: 0 0 0 40px; border: none; padding: 0px;&quot;&gt;#insertBanco(Objeto: filtro): Void&lt;br&gt;#updateBanco() void&lt;br&gt;#deleteBanco() void&lt;br&gt;#selectBanco() List&amp;lt;Registro&amp;gt;&lt;br&gt;&lt;/blockquote&gt;&lt;/div&gt;" style="text;strokeColor=none;fillColor=none;align=left;verticalAlign=top;spacingLeft=4;spacingRight=4;overflow=hidden;rotatable=0;points=[[0,0.5],[1,0.5]];portConstraint=eastwest;whiteSpace=wrap;html=1;" parent="JFI_zeQeY46TYyX4Rh8R-12" vertex="1">
          <mxGeometry y="124" width="250" height="90" as="geometry" />
        </mxCell>
        <mxCell id="JFI_zeQeY46TYyX4Rh8R-18" value="Empresa" style="swimlane;fontStyle=1;align=center;verticalAlign=top;childLayout=stackLayout;horizontal=1;startSize=30;horizontalStack=0;resizeParent=1;resizeParentMax=0;resizeLast=0;collapsible=1;marginBottom=0;whiteSpace=wrap;html=1;" parent="1" vertex="1">
          <mxGeometry x="1070" y="8442" width="334" height="274" as="geometry" />
        </mxCell>
        <mxCell id="JFI_zeQeY46TYyX4Rh8R-19" value="- nome: String&lt;br&gt;- cnpj: String&lt;br&gt;- email: String&lt;br&gt;- funcionarios: list&amp;lt;funcioario&amp;gt;&lt;br&gt;&lt;div&gt;- servidores: list&amp;lt;Servidor&amp;gt;&lt;/div&gt;&lt;div&gt;- banco: Database&lt;br&gt;&lt;/div&gt;" style="text;strokeColor=none;fillColor=none;align=left;verticalAlign=top;spacingLeft=4;spacingRight=4;overflow=hidden;rotatable=0;points=[[0,0.5],[1,0.5]];portConstraint=eastwest;whiteSpace=wrap;html=1;" parent="JFI_zeQeY46TYyX4Rh8R-18" vertex="1">
          <mxGeometry y="30" width="334" height="100" as="geometry" />
        </mxCell>
        <mxCell id="JFI_zeQeY46TYyX4Rh8R-205" value="" style="endArrow=diamondThin;endFill=0;endSize=24;html=1;rounded=0;entryX=0.5;entryY=0;entryDx=0;entryDy=0;" parent="JFI_zeQeY46TYyX4Rh8R-18" target="JFI_zeQeY46TYyX4Rh8R-36" edge="1">
          <mxGeometry width="160" relative="1" as="geometry">
            <mxPoint y="88" as="sourcePoint" />
            <mxPoint x="160" y="88" as="targetPoint" />
            <Array as="points">
              <mxPoint x="-220" y="88" />
            </Array>
          </mxGeometry>
        </mxCell>
        <mxCell id="JFI_zeQeY46TYyX4Rh8R-20" value="" style="line;strokeWidth=1;fillColor=none;align=left;verticalAlign=middle;spacingTop=-1;spacingLeft=3;spacingRight=3;rotatable=0;labelPosition=right;points=[];portConstraint=eastwest;strokeColor=inherit;" parent="JFI_zeQeY46TYyX4Rh8R-18" vertex="1">
          <mxGeometry y="130" width="334" height="36" as="geometry" />
        </mxCell>
        <mxCell id="JFI_zeQeY46TYyX4Rh8R-21" value="&lt;font style=&quot;font-size: 10px;&quot;&gt;&lt;font style=&quot;&quot;&gt;+ cadastrarFuncionario(): void&lt;br&gt;+ cadastrarSupervisor(funcioario: funcionario, funcionario: supervisor) void&lt;br&gt;+ cadastrarServidor(funcionario: funcioario) void&lt;br&gt;+ removerServidor(Servidor: Servidor, funcionario: funcionario) void&lt;/font&gt;&lt;/font&gt;" style="text;strokeColor=none;fillColor=none;align=left;verticalAlign=top;spacingLeft=4;spacingRight=4;overflow=hidden;rotatable=0;points=[[0,0.5],[1,0.5]];portConstraint=eastwest;whiteSpace=wrap;html=1;" parent="JFI_zeQeY46TYyX4Rh8R-18" vertex="1">
          <mxGeometry y="166" width="334" height="108" as="geometry" />
        </mxCell>
        <mxCell id="JFI_zeQeY46TYyX4Rh8R-22" value="EndereÃ§o" style="swimlane;fontStyle=1;align=center;verticalAlign=top;childLayout=stackLayout;horizontal=1;startSize=26;horizontalStack=0;resizeParent=1;resizeParentMax=0;resizeLast=0;collapsible=1;marginBottom=0;whiteSpace=wrap;html=1;" parent="1" vertex="1">
          <mxGeometry x="1730" y="8280" width="180" height="168" as="geometry" />
        </mxCell>
        <mxCell id="JFI_zeQeY46TYyX4Rh8R-23" value="- cep: String&lt;br&gt;- logradouro: String&lt;br&gt;- numero: String&lt;br&gt;- cidade: String&lt;br&gt;&lt;div&gt;- estado: String&lt;/div&gt;&lt;div&gt;- bancoDeDados: Database&lt;/div&gt;&lt;div&gt;-fkEmpresa: Integer&lt;/div&gt;" style="text;html=1;align=center;verticalAlign=middle;resizable=0;points=[];autosize=1;strokeColor=none;fillColor=none;" parent="JFI_zeQeY46TYyX4Rh8R-22" vertex="1">
          <mxGeometry y="26" width="180" height="110" as="geometry" />
        </mxCell>
        <mxCell id="JFI_zeQeY46TYyX4Rh8R-24" value="" style="line;strokeWidth=1;fillColor=none;align=left;verticalAlign=middle;spacingTop=-1;spacingLeft=3;spacingRight=3;rotatable=0;labelPosition=right;points=[];portConstraint=eastwest;strokeColor=inherit;" parent="JFI_zeQeY46TYyX4Rh8R-22" vertex="1">
          <mxGeometry y="136" width="180" height="32" as="geometry" />
        </mxCell>
        <mxCell id="JFI_zeQeY46TYyX4Rh8R-25" value="Funcionario" style="swimlane;fontStyle=1;align=center;verticalAlign=top;childLayout=stackLayout;horizontal=1;startSize=26;horizontalStack=0;resizeParent=1;resizeParentMax=0;resizeLast=0;collapsible=1;marginBottom=0;whiteSpace=wrap;html=1;" parent="1" vertex="1">
          <mxGeometry x="1420" y="8770" width="240" height="134" as="geometry" />
        </mxCell>
        <mxCell id="JFI_zeQeY46TYyX4Rh8R-26" value="- nomeFunc: String&lt;br&gt;- emailFunc: String&lt;br&gt;- telefoneFunc: String&lt;br&gt;- permissao: String&lt;br&gt;&lt;div&gt;- supervisor: list&amp;lt;Funcionario&amp;gt;&lt;/div&gt;&lt;div&gt;- bancoDeDados: Database&lt;/div&gt;" style="text;html=1;align=center;verticalAlign=middle;resizable=0;points=[];autosize=1;strokeColor=none;fillColor=none;" parent="JFI_zeQeY46TYyX4Rh8R-25" vertex="1">
          <mxGeometry y="26" width="240" height="100" as="geometry" />
        </mxCell>
        <mxCell id="JFI_zeQeY46TYyX4Rh8R-27" value="" style="line;strokeWidth=1;fillColor=none;align=left;verticalAlign=middle;spacingTop=-1;spacingLeft=3;spacingRight=3;rotatable=0;labelPosition=right;points=[];portConstraint=eastwest;strokeColor=inherit;" parent="JFI_zeQeY46TYyX4Rh8R-25" vertex="1">
          <mxGeometry y="126" width="240" height="8" as="geometry" />
        </mxCell>
        <mxCell id="JFI_zeQeY46TYyX4Rh8R-28" value="Supervisor" style="html=1;whiteSpace=wrap;" parent="1" vertex="1">
          <mxGeometry x="1630" y="8720" width="110" height="50" as="geometry" />
        </mxCell>
        <mxCell id="JFI_zeQeY46TYyX4Rh8R-29" value="Cargo" style="swimlane;fontStyle=1;align=center;verticalAlign=top;childLayout=stackLayout;horizontal=1;startSize=40;horizontalStack=0;resizeParent=1;resizeParentMax=0;resizeLast=0;collapsible=1;marginBottom=0;whiteSpace=wrap;html=1;" parent="1" vertex="1">
          <mxGeometry x="1940" y="8970" width="170" height="150" as="geometry" />
        </mxCell>
        <mxCell id="JFI_zeQeY46TYyX4Rh8R-30" value="&lt;span style=&quot;background-color: initial;&quot;&gt;- nomeCargo: String&lt;/span&gt;&lt;br&gt;&lt;div&gt;- banco Database&lt;/div&gt;&lt;div&gt;- fkFuncionario: Integer&lt;/div&gt;" style="text;html=1;align=center;verticalAlign=middle;resizable=0;points=[];autosize=1;strokeColor=none;fillColor=none;" parent="JFI_zeQeY46TYyX4Rh8R-29" vertex="1">
          <mxGeometry y="40" width="170" height="60" as="geometry" />
        </mxCell>
        <mxCell id="JFI_zeQeY46TYyX4Rh8R-208" value="" style="endArrow=diamondThin;endFill=1;endSize=24;html=1;rounded=0;entryX=0.585;entryY=1.185;entryDx=0;entryDy=0;entryPerimeter=0;" parent="JFI_zeQeY46TYyX4Rh8R-29" target="JFI_zeQeY46TYyX4Rh8R-27" edge="1">
          <mxGeometry width="160" relative="1" as="geometry">
            <mxPoint y="90" as="sourcePoint" />
            <mxPoint x="160" y="90" as="targetPoint" />
            <Array as="points">
              <mxPoint x="-380" y="90" />
            </Array>
          </mxGeometry>
        </mxCell>
        <mxCell id="JFI_zeQeY46TYyX4Rh8R-31" value="" style="line;strokeWidth=1;fillColor=none;align=left;verticalAlign=middle;spacingTop=-1;spacingLeft=3;spacingRight=3;rotatable=0;labelPosition=right;points=[];portConstraint=eastwest;strokeColor=inherit;" parent="JFI_zeQeY46TYyX4Rh8R-29" vertex="1">
          <mxGeometry y="100" width="170" height="50" as="geometry" />
        </mxCell>
        <mxCell id="JFI_zeQeY46TYyX4Rh8R-32" value="Login" style="swimlane;fontStyle=1;align=center;verticalAlign=top;childLayout=stackLayout;horizontal=1;startSize=26;horizontalStack=0;resizeParent=1;resizeParentMax=0;resizeLast=0;collapsible=1;marginBottom=0;whiteSpace=wrap;html=1;" parent="1" vertex="1">
          <mxGeometry x="1940" y="8640" width="160" height="140" as="geometry" />
        </mxCell>
        <mxCell id="JFI_zeQeY46TYyX4Rh8R-33" value="- email: String&lt;br&gt;&lt;div&gt;- senha: String&lt;/div&gt;&lt;div&gt;- banco: Database&lt;/div&gt;&lt;div&gt;- fkFuncionario: Integer&amp;nbsp;&lt;/div&gt;" style="text;strokeColor=none;fillColor=none;align=left;verticalAlign=top;spacingLeft=4;spacingRight=4;overflow=hidden;rotatable=0;points=[[0,0.5],[1,0.5]];portConstraint=eastwest;whiteSpace=wrap;html=1;" parent="JFI_zeQeY46TYyX4Rh8R-32" vertex="1">
          <mxGeometry y="26" width="160" height="64" as="geometry" />
        </mxCell>
        <mxCell id="JFI_zeQeY46TYyX4Rh8R-34" value="" style="line;strokeWidth=1;fillColor=none;align=left;verticalAlign=middle;spacingTop=-1;spacingLeft=3;spacingRight=3;rotatable=0;labelPosition=right;points=[];portConstraint=eastwest;strokeColor=inherit;" parent="JFI_zeQeY46TYyX4Rh8R-32" vertex="1">
          <mxGeometry y="90" width="160" height="50" as="geometry" />
        </mxCell>
        <mxCell id="JFI_zeQeY46TYyX4Rh8R-36" value="Servidor" style="swimlane;fontStyle=1;align=center;verticalAlign=top;childLayout=stackLayout;horizontal=1;startSize=26;horizontalStack=0;resizeParent=1;resizeParentMax=0;resizeLast=0;collapsible=1;marginBottom=0;whiteSpace=wrap;html=1;" parent="1" vertex="1">
          <mxGeometry x="720" y="8640" width="260" height="220" as="geometry" />
        </mxCell>
        <mxCell id="JFI_zeQeY46TYyX4Rh8R-37" value="&lt;div align=&quot;left&quot;&gt; - sistemaOperacional: String&lt;/div&gt;&lt;div align=&quot;left&quot;&gt;- apelido: String&lt;/div&gt;&lt;div align=&quot;left&quot;&gt;- ip: String&lt;br&gt;- numeroSerie: String&lt;br&gt;- chamados: list&amp;lt;Chamado&amp;gt;&lt;br&gt;- downtime: downtime;&lt;br&gt;- componentes: list&amp;lt;Componente&amp;gt;&lt;br&gt;- responsavel: List&amp;lt; Funcionario&amp;gt;&lt;/div&gt;&lt;div&gt;- banco: Database&lt;/div&gt;&lt;div&gt;- fkEmpresa: Integer&lt;/div&gt;" style="text;html=1;align=left;verticalAlign=middle;resizable=0;points=[];autosize=1;strokeColor=none;fillColor=none;" parent="JFI_zeQeY46TYyX4Rh8R-36" vertex="1">
          <mxGeometry y="26" width="260" height="160" as="geometry" />
        </mxCell>
        <mxCell id="JFI_zeQeY46TYyX4Rh8R-38" value="" style="line;strokeWidth=1;fillColor=none;align=left;verticalAlign=middle;spacingTop=-1;spacingLeft=3;spacingRight=3;rotatable=0;labelPosition=right;points=[];portConstraint=eastwest;strokeColor=inherit;" parent="JFI_zeQeY46TYyX4Rh8R-36" vertex="1">
          <mxGeometry y="186" width="260" height="34" as="geometry" />
        </mxCell>
        <mxCell id="JFI_zeQeY46TYyX4Rh8R-39" value="Chamado" style="swimlane;fontStyle=1;align=center;verticalAlign=top;childLayout=stackLayout;horizontal=1;startSize=26;horizontalStack=0;resizeParent=1;resizeParentMax=0;resizeLast=0;collapsible=1;marginBottom=0;whiteSpace=wrap;html=1;" parent="1" vertex="1">
          <mxGeometry x="1120" y="8775" width="190" height="124" as="geometry" />
        </mxCell>
        <mxCell id="JFI_zeQeY46TYyX4Rh8R-40" value="- codigo: String&lt;br&gt;&lt;div&gt;- dtHora: datetime&lt;/div&gt;&lt;div&gt;- banco: Database&lt;/div&gt;&lt;div&gt;- fkServidor: Integer&lt;/div&gt;" style="text;strokeColor=none;fillColor=none;align=left;verticalAlign=top;spacingLeft=4;spacingRight=4;overflow=hidden;rotatable=0;points=[[0,0.5],[1,0.5]];portConstraint=eastwest;whiteSpace=wrap;html=1;" parent="JFI_zeQeY46TYyX4Rh8R-39" vertex="1">
          <mxGeometry y="26" width="190" height="64" as="geometry" />
        </mxCell>
        <mxCell id="JFI_zeQeY46TYyX4Rh8R-41" value="" style="line;strokeWidth=1;fillColor=none;align=left;verticalAlign=middle;spacingTop=-1;spacingLeft=3;spacingRight=3;rotatable=0;labelPosition=right;points=[];portConstraint=eastwest;strokeColor=inherit;" parent="JFI_zeQeY46TYyX4Rh8R-39" vertex="1">
          <mxGeometry y="90" width="190" height="8" as="geometry" />
        </mxCell>
        <mxCell id="JFI_zeQeY46TYyX4Rh8R-42" value="+ adicionarChamado() void" style="text;strokeColor=none;fillColor=none;align=left;verticalAlign=top;spacingLeft=4;spacingRight=4;overflow=hidden;rotatable=0;points=[[0,0.5],[1,0.5]];portConstraint=eastwest;whiteSpace=wrap;html=1;" parent="JFI_zeQeY46TYyX4Rh8R-39" vertex="1">
          <mxGeometry y="98" width="190" height="26" as="geometry" />
        </mxCell>
        <mxCell id="JFI_zeQeY46TYyX4Rh8R-43" value="&amp;lt;&amp;lt;abstract&amp;gt;&amp;gt;&lt;br&gt;Componente" style="swimlane;fontStyle=1;align=center;verticalAlign=top;childLayout=stackLayout;horizontal=1;startSize=44;horizontalStack=0;resizeParent=1;resizeParentMax=0;resizeLast=0;collapsible=1;marginBottom=0;whiteSpace=wrap;html=1;" parent="1" vertex="1">
          <mxGeometry x="600" y="8983" width="220" height="220" as="geometry" />
        </mxCell>
        <mxCell id="JFI_zeQeY46TYyX4Rh8R-44" value="- fabricante: string&lt;br&gt;- nomeModelo: string&lt;br&gt;- tipoComponente: string&lt;br&gt;- limiteMin: string&lt;br&gt;- limiteMax: string&lt;br&gt;&lt;div&gt;- recursos: list&amp;lt;Recurso&amp;gt;&lt;/div&gt;&lt;div&gt;- banco: Database&lt;/div&gt;" style="text;strokeColor=none;fillColor=none;align=left;verticalAlign=top;spacingLeft=4;spacingRight=4;overflow=hidden;rotatable=0;points=[[0,0.5],[1,0.5]];portConstraint=eastwest;whiteSpace=wrap;html=1;" parent="JFI_zeQeY46TYyX4Rh8R-43" vertex="1">
          <mxGeometry y="44" width="220" height="126" as="geometry" />
        </mxCell>
        <mxCell id="JFI_zeQeY46TYyX4Rh8R-45" value="" style="line;strokeWidth=1;fillColor=none;align=left;verticalAlign=middle;spacingTop=-1;spacingLeft=3;spacingRight=3;rotatable=0;labelPosition=right;points=[];portConstraint=eastwest;strokeColor=inherit;" parent="JFI_zeQeY46TYyX4Rh8R-43" vertex="1">
          <mxGeometry y="170" width="220" height="50" as="geometry" />
        </mxCell>
        <mxCell id="JFI_zeQeY46TYyX4Rh8R-46" value="Downtime" style="swimlane;fontStyle=1;align=center;verticalAlign=top;childLayout=stackLayout;horizontal=1;startSize=26;horizontalStack=0;resizeParent=1;resizeParentMax=0;resizeLast=0;collapsible=1;marginBottom=0;whiteSpace=wrap;html=1;" parent="1" vertex="1">
          <mxGeometry x="430" y="8730" width="160" height="116" as="geometry" />
        </mxCell>
        <mxCell id="JFI_zeQeY46TYyX4Rh8R-47" value="- tempoDowntime: int&lt;br&gt;&lt;div&gt;- dtHora: datetime&amp;nbsp;&lt;/div&gt;&lt;div&gt;- banco: Database&lt;/div&gt;&lt;div&gt;- fkServidor: int&lt;/div&gt;" style="text;whiteSpace=wrap;html=1;" parent="JFI_zeQeY46TYyX4Rh8R-46" vertex="1">
          <mxGeometry y="26" width="160" height="74" as="geometry" />
        </mxCell>
        <mxCell id="JFI_zeQeY46TYyX4Rh8R-48" value="" style="line;strokeWidth=1;fillColor=none;align=left;verticalAlign=middle;spacingTop=-1;spacingLeft=3;spacingRight=3;rotatable=0;labelPosition=right;points=[];portConstraint=eastwest;strokeColor=inherit;" parent="JFI_zeQeY46TYyX4Rh8R-46" vertex="1">
          <mxGeometry y="100" width="160" height="16" as="geometry" />
        </mxCell>
        <mxCell id="JFI_zeQeY46TYyX4Rh8R-49" value="&amp;lt;&amp;lt;abstract&amp;gt;&amp;gt;&lt;br&gt;Recurso" style="swimlane;fontStyle=1;align=center;verticalAlign=top;childLayout=stackLayout;horizontal=1;startSize=40;horizontalStack=0;resizeParent=1;resizeParentMax=0;resizeLast=0;collapsible=1;marginBottom=0;whiteSpace=wrap;html=1;" parent="1" vertex="1">
          <mxGeometry x="994" y="9220" width="260" height="180" as="geometry" />
        </mxCell>
        <mxCell id="JFI_zeQeY46TYyX4Rh8R-50" value="&lt;div&gt;- nome: String&lt;/div&gt;&lt;div&gt;- unidadeMedida: String&lt;/div&gt;&lt;div&gt;- registro: List&amp;lt;Registro&amp;gt;&lt;br&gt;&lt;/div&gt;- banco: Database&lt;br&gt;- fkComponente: Integer" style="text;strokeColor=none;fillColor=none;align=left;verticalAlign=top;spacingLeft=4;spacingRight=4;overflow=hidden;rotatable=0;points=[[0,0.5],[1,0.5]];portConstraint=eastwest;whiteSpace=wrap;html=1;" parent="JFI_zeQeY46TYyX4Rh8R-49" vertex="1">
          <mxGeometry y="40" width="260" height="110" as="geometry" />
        </mxCell>
        <mxCell id="JFI_zeQeY46TYyX4Rh8R-51" value="" style="line;strokeWidth=1;fillColor=none;align=left;verticalAlign=middle;spacingTop=-1;spacingLeft=3;spacingRight=3;rotatable=0;labelPosition=right;points=[];portConstraint=eastwest;strokeColor=inherit;" parent="JFI_zeQeY46TYyX4Rh8R-49" vertex="1">
          <mxGeometry y="150" width="260" height="30" as="geometry" />
        </mxCell>
        <mxCell id="JFI_zeQeY46TYyX4Rh8R-52" value="Registro" style="swimlane;fontStyle=1;align=center;verticalAlign=top;childLayout=stackLayout;horizontal=1;startSize=26;horizontalStack=0;resizeParent=1;resizeParentMax=0;resizeLast=0;collapsible=1;marginBottom=0;whiteSpace=wrap;html=1;" parent="1" vertex="1">
          <mxGeometry x="1364" y="9146" width="160" height="114" as="geometry" />
        </mxCell>
        <mxCell id="JFI_zeQeY46TYyX4Rh8R-53" value="&lt;div&gt;- valor: Double&lt;/div&gt;&lt;div&gt;- banco: Database&lt;/div&gt;&lt;div&gt;- fkRecurso: Integer&lt;/div&gt;" style="text;strokeColor=none;fillColor=none;align=left;verticalAlign=top;spacingLeft=4;spacingRight=4;overflow=hidden;rotatable=0;points=[[0,0.5],[1,0.5]];portConstraint=eastwest;whiteSpace=wrap;html=1;" parent="JFI_zeQeY46TYyX4Rh8R-52" vertex="1">
          <mxGeometry y="26" width="160" height="54" as="geometry" />
        </mxCell>
        <mxCell id="JFI_zeQeY46TYyX4Rh8R-54" value="" style="line;strokeWidth=1;fillColor=none;align=left;verticalAlign=middle;spacingTop=-1;spacingLeft=3;spacingRight=3;rotatable=0;labelPosition=right;points=[];portConstraint=eastwest;strokeColor=inherit;" parent="JFI_zeQeY46TYyX4Rh8R-52" vertex="1">
          <mxGeometry y="80" width="160" height="8" as="geometry" />
        </mxCell>
        <mxCell id="JFI_zeQeY46TYyX4Rh8R-55" value="+ method(type): type" style="text;strokeColor=none;fillColor=none;align=left;verticalAlign=top;spacingLeft=4;spacingRight=4;overflow=hidden;rotatable=0;points=[[0,0.5],[1,0.5]];portConstraint=eastwest;whiteSpace=wrap;html=1;" parent="JFI_zeQeY46TYyX4Rh8R-52" vertex="1">
          <mxGeometry y="88" width="160" height="26" as="geometry" />
        </mxCell>
        <mxCell id="JFI_zeQeY46TYyX4Rh8R-58" value="SQLServer" style="swimlane;fontStyle=0;childLayout=stackLayout;horizontal=1;startSize=30;fillColor=none;horizontalStack=0;resizeParent=1;resizeParentMax=0;resizeLast=0;collapsible=1;marginBottom=0;whiteSpace=wrap;html=1;" parent="1" vertex="1">
          <mxGeometry x="490" y="8460" width="140" height="60" as="geometry" />
        </mxCell>
        <mxCell id="JFI_zeQeY46TYyX4Rh8R-59" value="-ip: String" style="text;strokeColor=none;fillColor=none;align=left;verticalAlign=top;spacingLeft=4;spacingRight=4;overflow=hidden;rotatable=0;points=[[0,0.5],[1,0.5]];portConstraint=eastwest;whiteSpace=wrap;html=1;" parent="JFI_zeQeY46TYyX4Rh8R-58" vertex="1">
          <mxGeometry y="30" width="140" height="30" as="geometry" />
        </mxCell>
        <mxCell id="JFI_zeQeY46TYyX4Rh8R-60" style="edgeStyle=orthogonalEdgeStyle;rounded=0;orthogonalLoop=1;jettySize=auto;html=1;entryX=0.004;entryY=0.617;entryDx=0;entryDy=0;entryPerimeter=0;" parent="1" source="JFI_zeQeY46TYyX4Rh8R-43" target="JFI_zeQeY46TYyX4Rh8R-50" edge="1">
          <mxGeometry relative="1" as="geometry" />
        </mxCell>
        <mxCell id="JFI_zeQeY46TYyX4Rh8R-61" style="edgeStyle=orthogonalEdgeStyle;rounded=0;orthogonalLoop=1;jettySize=auto;html=1;entryX=0.418;entryY=1.016;entryDx=0;entryDy=0;entryPerimeter=0;" parent="1" source="JFI_zeQeY46TYyX4Rh8R-10" target="JFI_zeQeY46TYyX4Rh8R-15" edge="1">
          <mxGeometry relative="1" as="geometry">
            <Array as="points">
              <mxPoint x="380" y="8429" />
              <mxPoint x="440" y="8429" />
              <mxPoint x="440" y="8385" />
            </Array>
          </mxGeometry>
        </mxCell>
        <mxCell id="JFI_zeQeY46TYyX4Rh8R-62" style="edgeStyle=orthogonalEdgeStyle;rounded=0;orthogonalLoop=1;jettySize=auto;html=1;entryX=0.747;entryY=1.035;entryDx=0;entryDy=0;entryPerimeter=0;" parent="1" source="JFI_zeQeY46TYyX4Rh8R-58" target="JFI_zeQeY46TYyX4Rh8R-15" edge="1">
          <mxGeometry relative="1" as="geometry">
            <Array as="points">
              <mxPoint x="540" y="8429" />
              <mxPoint x="520" y="8429" />
              <mxPoint x="520" y="8387" />
            </Array>
          </mxGeometry>
        </mxCell>
        <mxCell id="JFI_zeQeY46TYyX4Rh8R-63" style="edgeStyle=orthogonalEdgeStyle;rounded=0;orthogonalLoop=1;jettySize=auto;html=1;entryX=0;entryY=0.727;entryDx=0;entryDy=0;entryPerimeter=0;" parent="1" source="JFI_zeQeY46TYyX4Rh8R-26" target="JFI_zeQeY46TYyX4Rh8R-33" edge="1">
          <mxGeometry relative="1" as="geometry">
            <Array as="points">
              <mxPoint x="1790" y="8846" />
              <mxPoint x="1790" y="8712" />
            </Array>
          </mxGeometry>
        </mxCell>
        <mxCell id="JFI_zeQeY46TYyX4Rh8R-66" style="edgeStyle=orthogonalEdgeStyle;rounded=0;orthogonalLoop=1;jettySize=auto;html=1;" parent="1" source="JFI_zeQeY46TYyX4Rh8R-67" edge="1">
          <mxGeometry relative="1" as="geometry">
            <mxPoint x="1160" y="9400" as="targetPoint" />
          </mxGeometry>
        </mxCell>
        <mxCell id="JFI_zeQeY46TYyX4Rh8R-67" value="CpuUso&amp;nbsp;" style="swimlane;fontStyle=1;align=center;verticalAlign=top;childLayout=stackLayout;horizontal=1;startSize=26;horizontalStack=0;resizeParent=1;resizeParentMax=0;resizeLast=0;collapsible=1;marginBottom=0;whiteSpace=wrap;html=1;" parent="1" vertex="1">
          <mxGeometry x="1270" y="9430" width="240" height="114" as="geometry">
            <mxRectangle x="360" y="520" width="120" height="40" as="alternateBounds" />
          </mxGeometry>
        </mxCell>
        <mxCell id="JFI_zeQeY46TYyX4Rh8R-68" value="- atributosDeComponenteEspecificos" style="text;strokeColor=none;fillColor=none;align=left;verticalAlign=top;spacingLeft=4;spacingRight=4;overflow=hidden;rotatable=0;points=[[0,0.5],[1,0.5]];portConstraint=eastwest;whiteSpace=wrap;html=1;" parent="JFI_zeQeY46TYyX4Rh8R-67" vertex="1">
          <mxGeometry y="26" width="240" height="24" as="geometry" />
        </mxCell>
        <mxCell id="JFI_zeQeY46TYyX4Rh8R-69" value="" style="line;strokeWidth=1;fillColor=none;align=left;verticalAlign=middle;spacingTop=-1;spacingLeft=3;spacingRight=3;rotatable=0;labelPosition=right;points=[];portConstraint=eastwest;strokeColor=inherit;" parent="JFI_zeQeY46TYyX4Rh8R-67" vertex="1">
          <mxGeometry y="50" width="240" height="8" as="geometry" />
        </mxCell>
        <mxCell id="JFI_zeQeY46TYyX4Rh8R-70" value="+ registrarValores() : void" style="text;strokeColor=none;fillColor=none;align=left;verticalAlign=top;spacingLeft=4;spacingRight=4;overflow=hidden;rotatable=0;points=[[0,0.5],[1,0.5]];portConstraint=eastwest;whiteSpace=wrap;html=1;" parent="JFI_zeQeY46TYyX4Rh8R-67" vertex="1">
          <mxGeometry y="58" width="240" height="56" as="geometry" />
        </mxCell>
        <mxCell id="JFI_zeQeY46TYyX4Rh8R-71" style="edgeStyle=orthogonalEdgeStyle;rounded=0;orthogonalLoop=1;jettySize=auto;html=1;" parent="1" source="JFI_zeQeY46TYyX4Rh8R-72" edge="1">
          <mxGeometry relative="1" as="geometry">
            <mxPoint x="1090" y="9400" as="targetPoint" />
          </mxGeometry>
        </mxCell>
        <mxCell id="JFI_zeQeY46TYyX4Rh8R-72" value="RamUso" style="swimlane;fontStyle=1;align=center;verticalAlign=top;childLayout=stackLayout;horizontal=1;startSize=26;horizontalStack=0;resizeParent=1;resizeParentMax=0;resizeLast=0;collapsible=1;marginBottom=0;whiteSpace=wrap;html=1;" parent="1" vertex="1">
          <mxGeometry x="754" y="9470" width="240" height="114" as="geometry">
            <mxRectangle x="360" y="520" width="120" height="40" as="alternateBounds" />
          </mxGeometry>
        </mxCell>
        <mxCell id="JFI_zeQeY46TYyX4Rh8R-73" value="- atributosDeComponenteEspecificos" style="text;strokeColor=none;fillColor=none;align=left;verticalAlign=top;spacingLeft=4;spacingRight=4;overflow=hidden;rotatable=0;points=[[0,0.5],[1,0.5]];portConstraint=eastwest;whiteSpace=wrap;html=1;" parent="JFI_zeQeY46TYyX4Rh8R-72" vertex="1">
          <mxGeometry y="26" width="240" height="24" as="geometry" />
        </mxCell>
        <mxCell id="JFI_zeQeY46TYyX4Rh8R-74" value="" style="line;strokeWidth=1;fillColor=none;align=left;verticalAlign=middle;spacingTop=-1;spacingLeft=3;spacingRight=3;rotatable=0;labelPosition=right;points=[];portConstraint=eastwest;strokeColor=inherit;" parent="JFI_zeQeY46TYyX4Rh8R-72" vertex="1">
          <mxGeometry y="50" width="240" height="8" as="geometry" />
        </mxCell>
        <mxCell id="JFI_zeQeY46TYyX4Rh8R-75" value="+ registrarValores() : void" style="text;strokeColor=none;fillColor=none;align=left;verticalAlign=top;spacingLeft=4;spacingRight=4;overflow=hidden;rotatable=0;points=[[0,0.5],[1,0.5]];portConstraint=eastwest;whiteSpace=wrap;html=1;" parent="JFI_zeQeY46TYyX4Rh8R-72" vertex="1">
          <mxGeometry y="58" width="240" height="56" as="geometry" />
        </mxCell>
        <mxCell id="JFI_zeQeY46TYyX4Rh8R-76" value="DISCO" style="swimlane;fontStyle=1;align=center;verticalAlign=top;childLayout=stackLayout;horizontal=1;startSize=26;horizontalStack=0;resizeParent=1;resizeParentMax=0;resizeLast=0;collapsible=1;marginBottom=0;whiteSpace=wrap;html=1;" parent="1" vertex="1">
          <mxGeometry x="80" y="8910" width="240" height="114" as="geometry">
            <mxRectangle x="360" y="520" width="120" height="40" as="alternateBounds" />
          </mxGeometry>
        </mxCell>
        <mxCell id="JFI_zeQeY46TYyX4Rh8R-77" value="- atributosDeComponenteEspecificos" style="text;strokeColor=none;fillColor=none;align=left;verticalAlign=top;spacingLeft=4;spacingRight=4;overflow=hidden;rotatable=0;points=[[0,0.5],[1,0.5]];portConstraint=eastwest;whiteSpace=wrap;html=1;" parent="JFI_zeQeY46TYyX4Rh8R-76" vertex="1">
          <mxGeometry y="26" width="240" height="24" as="geometry" />
        </mxCell>
        <mxCell id="JFI_zeQeY46TYyX4Rh8R-78" value="" style="line;strokeWidth=1;fillColor=none;align=left;verticalAlign=middle;spacingTop=-1;spacingLeft=3;spacingRight=3;rotatable=0;labelPosition=right;points=[];portConstraint=eastwest;strokeColor=inherit;" parent="JFI_zeQeY46TYyX4Rh8R-76" vertex="1">
          <mxGeometry y="50" width="240" height="8" as="geometry" />
        </mxCell>
        <mxCell id="JFI_zeQeY46TYyX4Rh8R-79" value="+ registrarValores() : void" style="text;strokeColor=none;fillColor=none;align=left;verticalAlign=top;spacingLeft=4;spacingRight=4;overflow=hidden;rotatable=0;points=[[0,0.5],[1,0.5]];portConstraint=eastwest;whiteSpace=wrap;html=1;" parent="JFI_zeQeY46TYyX4Rh8R-76" vertex="1">
          <mxGeometry y="58" width="240" height="56" as="geometry" />
        </mxCell>
        <mxCell id="JFI_zeQeY46TYyX4Rh8R-80" value="REDE" style="swimlane;fontStyle=1;align=center;verticalAlign=top;childLayout=stackLayout;horizontal=1;startSize=26;horizontalStack=0;resizeParent=1;resizeParentMax=0;resizeLast=0;collapsible=1;marginBottom=0;whiteSpace=wrap;html=1;" parent="1" vertex="1">
          <mxGeometry x="80" y="9136" width="240" height="114" as="geometry">
            <mxRectangle x="360" y="520" width="120" height="40" as="alternateBounds" />
          </mxGeometry>
        </mxCell>
        <mxCell id="JFI_zeQeY46TYyX4Rh8R-81" value="- atributosDeComponenteEspecificos" style="text;strokeColor=none;fillColor=none;align=left;verticalAlign=top;spacingLeft=4;spacingRight=4;overflow=hidden;rotatable=0;points=[[0,0.5],[1,0.5]];portConstraint=eastwest;whiteSpace=wrap;html=1;" parent="JFI_zeQeY46TYyX4Rh8R-80" vertex="1">
          <mxGeometry y="26" width="240" height="24" as="geometry" />
        </mxCell>
        <mxCell id="JFI_zeQeY46TYyX4Rh8R-82" value="" style="line;strokeWidth=1;fillColor=none;align=left;verticalAlign=middle;spacingTop=-1;spacingLeft=3;spacingRight=3;rotatable=0;labelPosition=right;points=[];portConstraint=eastwest;strokeColor=inherit;" parent="JFI_zeQeY46TYyX4Rh8R-80" vertex="1">
          <mxGeometry y="50" width="240" height="8" as="geometry" />
        </mxCell>
        <mxCell id="JFI_zeQeY46TYyX4Rh8R-83" value="+ registrarValores() : void" style="text;strokeColor=none;fillColor=none;align=left;verticalAlign=top;spacingLeft=4;spacingRight=4;overflow=hidden;rotatable=0;points=[[0,0.5],[1,0.5]];portConstraint=eastwest;whiteSpace=wrap;html=1;" parent="JFI_zeQeY46TYyX4Rh8R-80" vertex="1">
          <mxGeometry y="58" width="240" height="56" as="geometry" />
        </mxCell>
        <mxCell id="JFI_zeQeY46TYyX4Rh8R-84" style="edgeStyle=orthogonalEdgeStyle;rounded=0;orthogonalLoop=1;jettySize=auto;html=1;entryX=-0.006;entryY=0.978;entryDx=0;entryDy=0;entryPerimeter=0;" parent="1" source="JFI_zeQeY46TYyX4Rh8R-80" target="JFI_zeQeY46TYyX4Rh8R-44" edge="1">
          <mxGeometry relative="1" as="geometry" />
        </mxCell>
        <mxCell id="JFI_zeQeY46TYyX4Rh8R-85" style="edgeStyle=orthogonalEdgeStyle;rounded=0;orthogonalLoop=1;jettySize=auto;html=1;entryX=0.01;entryY=0.436;entryDx=0;entryDy=0;entryPerimeter=0;" parent="1" source="JFI_zeQeY46TYyX4Rh8R-76" target="JFI_zeQeY46TYyX4Rh8R-44" edge="1">
          <mxGeometry relative="1" as="geometry" />
        </mxCell>
        <mxCell id="JFI_zeQeY46TYyX4Rh8R-86" value="" style="whiteSpace=wrap;html=1;aspect=fixed;fillColor=none;" parent="1" vertex="1">
          <mxGeometry x="240" y="8150" width="450" height="450" as="geometry" />
        </mxCell>
        <mxCell id="JFI_zeQeY46TYyX4Rh8R-87" style="edgeStyle=orthogonalEdgeStyle;rounded=0;orthogonalLoop=1;jettySize=auto;html=1;entryX=1;entryY=0.5;entryDx=0;entryDy=0;" parent="1" source="JFI_zeQeY46TYyX4Rh8R-37" target="JFI_zeQeY46TYyX4Rh8R-47" edge="1">
          <mxGeometry relative="1" as="geometry" />
        </mxCell>
        <mxCell id="JFI_zeQeY46TYyX4Rh8R-88" value="1" style="text;html=1;align=center;verticalAlign=middle;resizable=0;points=[];autosize=1;strokeColor=none;fillColor=none;" parent="1" vertex="1">
          <mxGeometry x="1145" y="8278" width="30" height="30" as="geometry" />
        </mxCell>
        <mxCell id="JFI_zeQeY46TYyX4Rh8R-177" value="0..*" style="text;html=1;align=center;verticalAlign=middle;resizable=0;points=[];autosize=1;strokeColor=none;fillColor=none;" parent="1" vertex="1">
          <mxGeometry x="1150" y="8408" width="40" height="30" as="geometry" />
        </mxCell>
        <mxCell id="JFI_zeQeY46TYyX4Rh8R-178" value="1" style="text;html=1;align=center;verticalAlign=middle;resizable=0;points=[];autosize=1;strokeColor=none;fillColor=none;" parent="1" vertex="1">
          <mxGeometry x="1685" y="8288" width="30" height="30" as="geometry" />
        </mxCell>
        <mxCell id="JFI_zeQeY46TYyX4Rh8R-179" value="1" style="text;html=1;align=center;verticalAlign=middle;resizable=0;points=[];autosize=1;strokeColor=none;fillColor=none;" parent="1" vertex="1">
          <mxGeometry x="1405" y="8488" width="30" height="30" as="geometry" />
        </mxCell>
        <mxCell id="JFI_zeQeY46TYyX4Rh8R-180" value="0..*" style="text;html=1;align=center;verticalAlign=middle;resizable=0;points=[];autosize=1;strokeColor=none;fillColor=none;" parent="1" vertex="1">
          <mxGeometry x="1580" y="8730" width="40" height="30" as="geometry" />
        </mxCell>
        <mxCell id="JFI_zeQeY46TYyX4Rh8R-181" value="1" style="text;html=1;align=center;verticalAlign=middle;resizable=0;points=[];autosize=1;strokeColor=none;fillColor=none;" parent="1" vertex="1">
          <mxGeometry x="1404" y="8640" width="30" height="30" as="geometry" />
        </mxCell>
        <mxCell id="JFI_zeQeY46TYyX4Rh8R-183" value="0..*" style="text;html=1;align=center;verticalAlign=middle;resizable=0;points=[];autosize=1;strokeColor=none;fillColor=none;" parent="1" vertex="1">
          <mxGeometry x="1480" y="8728" width="40" height="30" as="geometry" />
        </mxCell>
        <mxCell id="JFI_zeQeY46TYyX4Rh8R-184" value="1" style="text;html=1;align=center;verticalAlign=middle;resizable=0;points=[];autosize=1;strokeColor=none;fillColor=none;" parent="1" vertex="1">
          <mxGeometry x="1895" y="8678" width="30" height="30" as="geometry" />
        </mxCell>
        <mxCell id="JFI_zeQeY46TYyX4Rh8R-185" value="1" style="text;html=1;align=center;verticalAlign=middle;resizable=0;points=[];autosize=1;strokeColor=none;fillColor=none;" parent="1" vertex="1">
          <mxGeometry x="1655" y="8818" width="30" height="30" as="geometry" />
        </mxCell>
        <mxCell id="JFI_zeQeY46TYyX4Rh8R-186" value="1" style="text;html=1;align=center;verticalAlign=middle;resizable=0;points=[];autosize=1;strokeColor=none;fillColor=none;" parent="1" vertex="1">
          <mxGeometry x="980" y="8800" width="30" height="30" as="geometry" />
        </mxCell>
        <mxCell id="JFI_zeQeY46TYyX4Rh8R-187" value="0..*" style="text;html=1;align=center;verticalAlign=middle;resizable=0;points=[];autosize=1;strokeColor=none;fillColor=none;" parent="1" vertex="1">
          <mxGeometry x="1080" y="8798" width="40" height="30" as="geometry" />
        </mxCell>
        <mxCell id="JFI_zeQeY46TYyX4Rh8R-188" value="1" style="text;html=1;align=center;verticalAlign=middle;resizable=0;points=[];autosize=1;strokeColor=none;fillColor=none;" parent="1" vertex="1">
          <mxGeometry x="595" y="8738" width="30" height="30" as="geometry" />
        </mxCell>
        <mxCell id="JFI_zeQeY46TYyX4Rh8R-189" value="1" style="text;html=1;align=center;verticalAlign=middle;resizable=0;points=[];autosize=1;strokeColor=none;fillColor=none;" parent="1" vertex="1">
          <mxGeometry x="685" y="8698" width="30" height="30" as="geometry" />
        </mxCell>
        <mxCell id="JFI_zeQeY46TYyX4Rh8R-190" value="0..*" style="text;html=1;align=center;verticalAlign=middle;resizable=0;points=[];autosize=1;strokeColor=none;fillColor=none;" parent="1" vertex="1">
          <mxGeometry x="710" y="8860" width="40" height="30" as="geometry" />
        </mxCell>
        <mxCell id="JFI_zeQeY46TYyX4Rh8R-192" value="1..*" style="text;html=1;align=center;verticalAlign=middle;resizable=0;points=[];autosize=1;strokeColor=none;fillColor=none;" parent="1" vertex="1">
          <mxGeometry x="870" y="8920" width="40" height="30" as="geometry" />
        </mxCell>
        <mxCell id="JFI_zeQeY46TYyX4Rh8R-193" value="1" style="text;html=1;align=center;verticalAlign=middle;resizable=0;points=[];autosize=1;strokeColor=none;fillColor=none;" parent="1" vertex="1">
          <mxGeometry x="1895" y="9008" width="30" height="30" as="geometry" />
        </mxCell>
        <mxCell id="JFI_zeQeY46TYyX4Rh8R-194" value="1..*" style="text;html=1;align=center;verticalAlign=middle;resizable=0;points=[];autosize=1;strokeColor=none;fillColor=none;" parent="1" vertex="1">
          <mxGeometry x="1610" y="8908" width="40" height="30" as="geometry" />
        </mxCell>
        <mxCell id="JFI_zeQeY46TYyX4Rh8R-195" value="1" style="text;html=1;align=center;verticalAlign=middle;resizable=0;points=[];autosize=1;strokeColor=none;fillColor=none;" parent="1" vertex="1">
          <mxGeometry x="1035" y="8528" width="30" height="30" as="geometry" />
        </mxCell>
        <mxCell id="JFI_zeQeY46TYyX4Rh8R-196" value="0...*" style="text;html=1;align=center;verticalAlign=middle;resizable=0;points=[];autosize=1;strokeColor=none;fillColor=none;" parent="1" vertex="1">
          <mxGeometry x="810" y="8598" width="40" height="30" as="geometry" />
        </mxCell>
        <mxCell id="JFI_zeQeY46TYyX4Rh8R-197" value="0..*" style="text;html=1;align=center;verticalAlign=middle;resizable=0;points=[];autosize=1;strokeColor=none;fillColor=none;" parent="1" vertex="1">
          <mxGeometry x="1394" y="9270" width="40" height="30" as="geometry" />
        </mxCell>
        <mxCell id="JFI_zeQeY46TYyX4Rh8R-198" value="1" style="text;html=1;align=center;verticalAlign=middle;resizable=0;points=[];autosize=1;strokeColor=none;fillColor=none;" parent="1" vertex="1">
          <mxGeometry x="1254" y="9270" width="30" height="30" as="geometry" />
        </mxCell>
        <mxCell id="JFI_zeQeY46TYyX4Rh8R-199" value="1..*" style="text;html=1;align=center;verticalAlign=middle;resizable=0;points=[];autosize=1;strokeColor=none;fillColor=none;" parent="1" vertex="1">
          <mxGeometry x="940" y="9278" width="40" height="30" as="geometry" />
        </mxCell>
        <mxCell id="JFI_zeQeY46TYyX4Rh8R-200" value="1" style="text;html=1;align=center;verticalAlign=middle;resizable=0;points=[];autosize=1;strokeColor=none;fillColor=none;" parent="1" vertex="1">
          <mxGeometry x="735" y="9208" width="30" height="30" as="geometry" />
        </mxCell>
        <mxCell id="JFI_zeQeY46TYyX4Rh8R-202" value="" style="endArrow=diamondThin;endFill=0;endSize=24;html=1;rounded=0;entryX=0.708;entryY=1;entryDx=0;entryDy=0;entryPerimeter=0;" parent="1" target="JFI_zeQeY46TYyX4Rh8R-9" edge="1">
          <mxGeometry width="160" relative="1" as="geometry">
            <mxPoint x="1240" y="8440" as="sourcePoint" />
            <mxPoint x="1240" y="8290" as="targetPoint" />
          </mxGeometry>
        </mxCell>
        <mxCell id="JFI_zeQeY46TYyX4Rh8R-203" value="" style="endArrow=diamondThin;endFill=0;endSize=24;html=1;rounded=0;exitX=-0.019;exitY=0.468;exitDx=0;exitDy=0;exitPerimeter=0;entryX=0.988;entryY=0.68;entryDx=0;entryDy=0;entryPerimeter=0;" parent="1" source="JFI_zeQeY46TYyX4Rh8R-23" target="JFI_zeQeY46TYyX4Rh8R-19" edge="1">
          <mxGeometry width="160" relative="1" as="geometry">
            <mxPoint x="1420" y="8380" as="sourcePoint" />
            <mxPoint x="1410" y="8540" as="targetPoint" />
            <Array as="points">
              <mxPoint x="1590" y="8357" />
              <mxPoint x="1590" y="8540" />
            </Array>
          </mxGeometry>
        </mxCell>
        <mxCell id="JFI_zeQeY46TYyX4Rh8R-206" value="" style="endArrow=diamondThin;endFill=0;endSize=24;html=1;rounded=0;exitX=0.545;exitY=0.009;exitDx=0;exitDy=0;exitPerimeter=0;entryX=0.988;entryY=0.657;entryDx=0;entryDy=0;entryPerimeter=0;" parent="1" source="JFI_zeQeY46TYyX4Rh8R-25" target="JFI_zeQeY46TYyX4Rh8R-21" edge="1">
          <mxGeometry width="160" relative="1" as="geometry">
            <mxPoint x="1490" y="8670" as="sourcePoint" />
            <mxPoint x="1650" y="8670" as="targetPoint" />
            <Array as="points">
              <mxPoint x="1551" y="8679" />
            </Array>
          </mxGeometry>
        </mxCell>
        <mxCell id="JFI_zeQeY46TYyX4Rh8R-210" value="" style="endArrow=diamondThin;endFill=0;endSize=24;html=1;rounded=0;entryX=0;entryY=0.828;entryDx=0;entryDy=0;entryPerimeter=0;" parent="1" target="JFI_zeQeY46TYyX4Rh8R-40" edge="1">
          <mxGeometry width="160" relative="1" as="geometry">
            <mxPoint x="980" y="8750" as="sourcePoint" />
            <mxPoint x="1140" y="8750" as="targetPoint" />
            <Array as="points">
              <mxPoint x="1040" y="8750" />
              <mxPoint x="1040" y="8854" />
            </Array>
          </mxGeometry>
        </mxCell>
        <mxCell id="JFI_zeQeY46TYyX4Rh8R-212" value="1..*" style="text;html=1;align=center;verticalAlign=middle;resizable=0;points=[];autosize=1;strokeColor=none;fillColor=none;" parent="1" vertex="1">
          <mxGeometry x="1430" y="8920" width="40" height="30" as="geometry" />
        </mxCell>
        <mxCell id="JFI_zeQeY46TYyX4Rh8R-214" value="" style="endArrow=diamondThin;endFill=1;endSize=24;html=1;rounded=0;entryX=0.5;entryY=1;entryDx=0;entryDy=0;" parent="1" target="JFI_zeQeY46TYyX4Rh8R-36" edge="1">
          <mxGeometry width="160" relative="1" as="geometry">
            <mxPoint x="1480" y="8900" as="sourcePoint" />
            <mxPoint x="1640" y="8900" as="targetPoint" />
            <Array as="points">
              <mxPoint x="1480" y="8960" />
              <mxPoint x="850" y="8960" />
            </Array>
          </mxGeometry>
        </mxCell>
        <mxCell id="JFI_zeQeY46TYyX4Rh8R-215" value="" style="endArrow=diamondThin;endFill=1;endSize=24;html=1;rounded=0;exitX=0.712;exitY=-0.002;exitDx=0;exitDy=0;exitPerimeter=0;" parent="1" source="JFI_zeQeY46TYyX4Rh8R-43" edge="1">
          <mxGeometry width="160" relative="1" as="geometry">
            <mxPoint x="760" y="8970" as="sourcePoint" />
            <mxPoint x="757" y="8860" as="targetPoint" />
          </mxGeometry>
        </mxCell>
        <mxCell id="JFI_zeQeY46TYyX4Rh8R-216" value="1" style="text;html=1;align=center;verticalAlign=middle;resizable=0;points=[];autosize=1;strokeColor=none;fillColor=none;" parent="1" vertex="1">
          <mxGeometry x="719" y="8950" width="30" height="30" as="geometry" />
        </mxCell>
        <mxCell id="JFI_zeQeY46TYyX4Rh8R-217" value="" style="endArrow=diamondThin;endFill=0;endSize=24;html=1;rounded=0;entryX=1;entryY=0.5;entryDx=0;entryDy=0;" parent="1" target="JFI_zeQeY46TYyX4Rh8R-50" edge="1">
          <mxGeometry width="160" relative="1" as="geometry">
            <mxPoint x="1440" y="9260" as="sourcePoint" />
            <mxPoint x="1600" y="9260" as="targetPoint" />
            <Array as="points">
              <mxPoint x="1440" y="9315" />
            </Array>
          </mxGeometry>
        </mxCell>
      </root>
    </mxGraphModel>
  </diagram>
</mxfile>
